<?xml version="1.0" encoding="UTF-8" standalone="no"?><!DOCTYPE svg PUBLIC "-//W3C//DTD SVG 1.1//EN" "http://www.w3.org/Graphics/SVG/1.1/DTD/svg11.dtd"><svg width="100%" height="100%" viewBox="0 0 75 75" version="1.1" xmlns="http://www.w3.org/2000/svg" xmlns:xlink="http://www.w3.org/1999/xlink" xml:space="preserve" xmlns:serif="http://www.serif.com/" style="fill-rule:evenodd;clip-rule:evenodd;stroke-linejoin:round;stroke-miterlimit:2;"><g><g id="HTML5_logo_and_wordmark.svg"><path d="M15.879,0l3.369,0l0,3.34l3.106,-0l-0,-3.34l3.369,0l-0,10.107l-3.369,0l-0,-3.369l-3.077,0l0,3.369l-3.398,0m14.297,-6.738l-2.974,0l0,-3.369l9.331,0l0,3.369l-2.988,0l-0,6.738l-3.369,0m7.837,-10.107l3.53,0l2.168,3.56l2.168,-3.56l3.53,0l0,10.107l-3.369,0l0,-5.009l-2.358,3.633l-2.359,-3.633l0,5.009l-3.31,0m13.066,-10.107l3.369,0l0,6.768l4.776,-0l-0,3.339l-8.145,0" style="fill:#fff;fill-rule:nonzero;"/><path d="M15.762,68.994l-4.834,-54.258l53.144,0l-4.834,54.229l-21.782,6.035" style="fill:#e44d26;fill-rule:nonzero;"/><path d="M37.5,70.386l0,-51.197l21.724,0.001l-4.146,46.288" style="fill:#f16529;fill-rule:nonzero;"/><path d="M20.801,25.825l16.699,0l0,6.651l-9.404,-0l0.615,6.811l8.789,0l0,6.636l-14.883,-0m0.293,3.34l6.68,-0l0.469,5.317l7.441,1.992l0,6.944l-13.652,-3.809" style="fill:#ebebeb;fill-rule:nonzero;"/><path d="M54.141,25.825l-16.67,0l-0,6.651l16.054,-0m-0.6,6.811l-15.454,0l-0,6.65l8.203,0l-0.777,8.643l-7.426,1.992l-0,6.914l13.623,-3.779" style="fill:#fff;fill-rule:nonzero;"/></g></g></svg>