<?xml version="1.0" encoding="UTF-8" standalone="no"?><!DOCTYPE svg PUBLIC "-//W3C//DTD SVG 1.1//EN" "http://www.w3.org/Graphics/SVG/1.1/DTD/svg11.dtd"><svg width="100%" height="100%" viewBox="0 0 922 829" version="1.1" xmlns="http://www.w3.org/2000/svg" xmlns:xlink="http://www.w3.org/1999/xlink" xml:space="preserve" xmlns:serif="http://www.serif.com/" style="fill-rule:evenodd;clip-rule:evenodd;stroke-linejoin:round;stroke-miterlimit:2;"><rect id="Artboard1" x="0" y="0" width="921.274" height="828.932" style="fill:none;"/><clipPath id="_clip1"><rect x="0" y="0" width="921.274" height="828.932"/></clipPath><g clip-path="url(#_clip1)"><path id="path21" d="M120.134,9.289c-40.184,23.859 -119.359,114.822 -120.117,138.676l-0,39.492c-0,50.058 46.791,94.05 89.267,94.05c51,-0 93.5,-42.275 93.508,-92.446c0,50.167 41.042,92.446 92.055,92.446c51.008,-0 90.733,-42.275 90.733,-92.446c0,50.167 43.625,92.446 94.626,92.446l0.916,-0c51,-0 94.667,-42.275 94.667,-92.446c0,50.167 39.709,92.446 90.709,92.446c51,-0 92.042,-42.275 92.042,-92.446c-0,50.167 42.5,92.446 93.5,92.446c42.459,-0 89.25,-43.988 89.25,-94.05l0,-39.492c-0.791,-23.854 -79.958,-114.817 -120.125,-138.676c-124.875,-4.387 -211.501,-5.141 -340.543,-5.125c-128.996,0.009 -304.955,2.021 -340.497,5.125l0.009,0Zm244.805,248.643c-4.879,8.501 -10.92,16.279 -17.95,23.108c-19.948,19.565 -46.809,30.525 -74.751,30.5c-29.104,0 -55.65,-11.666 -74.9,-30.508c-6.958,-6.833 -12.25,-14.142 -17.125,-22.65l0,0.017c-4.833,8.525 -11.625,15.825 -18.583,22.666c-20,19.562 -46.899,30.515 -74.876,30.488c-3.5,-0 -7.125,-0.958 -10.083,-1.958c-4.083,42.708 -5.833,83.5 -6.433,113.292l-0,0.166c-0.084,15.125 -0.146,27.542 -0.225,44.792c0.791,89.625 -8.875,290.418 39.5,339.751c74.958,17.5 212.892,25.458 351.293,25.5l0.012,0c138.392,-0.042 276.334,-8 351.293,-25.458c48.375,-49.342 38.708,-250.134 39.5,-339.73c-0.071,-17.251 -0.142,-29.676 -0.221,-44.792l0,-0.167c-0.625,-29.758 -2.354,-70.563 -6.458,-113.263c-2.959,1 -6.613,1.971 -10.125,1.971c-27.982,0.027 -54.887,-10.924 -74.896,-30.483c-6.98,-6.855 -13.75,-14.155 -18.596,-22.667l-0.021,-0.029c-4.863,8.5 -10.158,15.821 -17.138,22.65c-19.25,18.833 -45.791,30.5 -74.887,30.5c-29.096,-0 -55.5,-11.667 -74.751,-30.5c-7.026,-6.835 -13.07,-14.612 -17.958,-23.109c-4.821,8.493 -10.804,16.271 -17.775,23.109c-20.01,19.573 -46.925,30.531 -74.917,30.5c-1.017,-0 -2.042,-0.042 -3.042,-0.083l-0.033,-0c-1.012,0.041 -2.025,0.083 -3.042,0.083c-29.108,-0 -55.654,-11.667 -74.908,-30.5c-6.978,-6.834 -12.966,-14.609 -17.792,-23.1l-0.112,-0.096Zm-76.926,99.471l-0.008,0.033l0.083,0c30.459,0.067 57.542,0 91.042,36.596c26.417,-2.762 53.959,-4.15 81.584,-4.104l0.042,0c27.625,-0.042 55.166,1.375 81.583,4.125c33.542,-36.583 60.584,-36.5 91.042,-36.583l0.083,-0l0,-0.042c14.417,0 71.959,0 112.084,112.667l43.117,154.584c31.938,115 -10.221,117.834 -62.804,117.917c-78.001,-2.875 -121.167,-59.542 -121.167,-116.167c-43.167,7.083 -93.542,10.625 -143.897,10.625l-0.021,-0c-50.358,-0 -100.717,-3.542 -143.875,-10.625c-0,56.625 -43.167,113.25 -121.159,116.167c-52.583,-0.083 -94.75,-2.917 -62.804,-117.875l43.083,-154.584c40.126,-112.667 97.709,-112.667 112.084,-112.667l-0.092,-0.067Zm172.668,88.542l-0,0.029c-0.071,0.071 -82.092,75.4 -96.834,102.192l53.708,-2.15l0,46.834c0,2.195 21.559,1.304 43.126,0.308l0.029,-0c21.571,1 43.125,1.887 43.125,-0.304l-0,-46.834l53.708,2.142c-14.741,-26.792 -96.833,-102.188 -96.833,-102.188l-0,-0.025l-0.009,0.008l-0.02,-0.012Z" style="fill:#fa5c5c;fill-rule:nonzero;"/></g></svg>