<?xml version="1.0" encoding="UTF-8" standalone="no"?><!DOCTYPE svg PUBLIC "-//W3C//DTD SVG 1.1//EN" "http://www.w3.org/Graphics/SVG/1.1/DTD/svg11.dtd"><svg width="100%" height="100%" viewBox="0 0 651 653" version="1.1" xmlns="http://www.w3.org/2000/svg" xmlns:xlink="http://www.w3.org/1999/xlink" xml:space="preserve" xmlns:serif="http://www.serif.com/" style="fill-rule:evenodd;clip-rule:evenodd;stroke-linejoin:round;stroke-miterlimit:2;"><rect id="Artboard1" x="0" y="0" width="650.98" height="652.685" style="fill:none;"/><clipPath id="_clip1"><rect x="0" y="0" width="650.98" height="652.685"/></clipPath><g clip-path="url(#_clip1)"><g id="lf_Logo"><g id="Logo"><path id="Rectangle" d="M653.512,56.06l0,546.949c0,29.179 -23.689,52.868 -52.867,52.868l-545.245,-0c-29.178,-0 -52.867,-23.689 -52.867,-52.868l-0,-546.949c-0,-29.179 23.689,-52.868 52.867,-52.868l545.245,0c29.178,0 52.867,23.689 52.867,52.868Z" style="fill:url(#_Linear2);"/><path id="path" d="M498.581,131.632c17.856,2.645 30.181,19.287 27.546,37.162c-2.636,17.881 -19.246,30.245 -37.108,27.599c-31.629,-4.686 -79.012,44.569 -132.061,145.846c-67.724,129.292 -130.76,190.894 -197.125,185.978c-18.002,-1.333 -31.507,-17.032 -30.179,-35.053c1.329,-18.025 16.994,-31.568 34.999,-30.234c32.772,2.427 80.909,-48.925 134.433,-151.108c68.157,-130.12 132.048,-190.182 199.495,-180.19Z" style="fill:#fff;fill-rule:nonzero;"/></g></g></g><defs><linearGradient id="_Linear2" x1="0" y1="0" x2="1" y2="0" gradientUnits="userSpaceOnUse" gradientTransform="matrix(619.295,405.693,-405.693,619.295,4.2311,70.447)"><stop offset="0" style="stop-color:#2beaed;stop-opacity:1"/><stop offset="1" style="stop-color:#0fccce;stop-opacity:1"/></linearGradient></defs></svg>