<?xml version="1.0" encoding="UTF-8" standalone="no"?><!DOCTYPE svg PUBLIC "-//W3C//DTD SVG 1.1//EN" "http://www.w3.org/Graphics/SVG/1.1/DTD/svg11.dtd"><svg width="100%" height="100%" viewBox="0 0 4460 4460" version="1.1" xmlns="http://www.w3.org/2000/svg" xmlns:xlink="http://www.w3.org/1999/xlink" xml:space="preserve" xmlns:serif="http://www.serif.com/" style="fill-rule:evenodd;clip-rule:evenodd;stroke-linejoin:round;stroke-miterlimit:2;"><rect id="Artboard1" x="0" y="0" width="4459.4" height="4459.4" style="fill:none;"/><clipPath id="_clip1"><rect x="0" y="0" width="4459.4" height="4459.4"/></clipPath><g clip-path="url(#_clip1)"><path d="M969.263,0.321l2527.3,0c533.176,0 966.051,432.875 966.051,966.051l-0,2527.3c-0,533.175 -432.875,966.05 -966.051,966.05l-2527.3,0c-533.175,0 -966.05,-432.875 -966.05,-966.05l-0,-2527.3c-0,-533.176 432.875,-966.051 966.05,-966.051Z" style="fill:#ffd02f;fill-rule:nonzero;"/><path d="M3101.97,557.252l-489.624,-0l407.8,716.619l-897.424,-716.619l-489.624,-0l448.712,876.308l-938.336,-876.308l-489.624,-0l489.624,1115.18l-489.624,2230.36l489.624,0l938.336,-2390.05l-448.712,2390.05l489.624,0l897.424,-2548.42l-407.8,2548.42l489.624,0l897.424,-2788.61l-897.424,-556.931Z" style="fill:#050038;fill-rule:nonzero;"/></g></svg>