<?xml version="1.0" encoding="UTF-8" standalone="no"?><!DOCTYPE svg PUBLIC "-//W3C//DTD SVG 1.1//EN" "http://www.w3.org/Graphics/SVG/1.1/DTD/svg11.dtd"><svg width="100%" height="100%" viewBox="0 0 1067 573" version="1.1" xmlns="http://www.w3.org/2000/svg" xmlns:xlink="http://www.w3.org/1999/xlink" xml:space="preserve" xmlns:serif="http://www.serif.com/" style="fill-rule:evenodd;clip-rule:evenodd;stroke-linejoin:round;stroke-miterlimit:2;"><rect id="Artboard1" x="0" y="0" width="1066.67" height="572.917" style="fill:none;"/><clipPath id="_clip1"><rect id="Artboard11" serif:id="Artboard1" x="0" y="0" width="1066.67" height="572.917"/></clipPath><g clip-path="url(#_clip1)"><rect x="-0" y="0" width="1066.67" height="572.917" style="fill:url(#_Radial2);"/><g><path d="M355.583,238.383l18.75,0l32.55,49.8c2.2,3.4 4.225,6.725 6.075,9.975c1.85,3.25 3.175,5.775 3.975,7.575l0.3,0c-0.6,-6.5 -0.9,-12.975 -0.9,-19.425l0,-47.925l19.05,0l0,94.5l-18.75,0l-30.3,-45.9c-1.3,-2 -2.575,-4.075 -3.825,-6.225c-1.25,-2.15 -2.425,-4.225 -3.525,-6.225c-1.1,-2 -2.075,-3.825 -2.925,-5.475c-0.85,-1.65 -1.475,-3.025 -1.875,-4.125l-0.3,0c0.5,6.9 0.775,13.525 0.825,19.875c0.05,6.35 0.075,12.825 0.075,19.425l0,28.65l-19.2,0l0,-94.5Z" style="fill:#fff;fill-rule:nonzero;"/><path d="M510.983,302.283l-47.55,0l0,0.6c0,5.7 2,9.95 6,12.75c4,2.8 9.15,4.2 15.45,4.2c4,0 7.525,-0.4 10.575,-1.2c3.05,-0.8 5.825,-1.75 8.325,-2.85l3.6,13.95c-2.7,1.3 -6.1,2.425 -10.2,3.375c-4.1,0.95 -8.95,1.425 -14.55,1.425c-5.4,0 -10.475,-0.725 -15.225,-2.175c-4.75,-1.45 -8.9,-3.675 -12.45,-6.675c-3.55,-3 -6.375,-6.8 -8.475,-11.4c-2.1,-4.6 -3.15,-10.1 -3.15,-16.5c0,-5.7 0.85,-10.875 2.55,-15.525c1.7,-4.65 4.125,-8.625 7.275,-11.925c3.15,-3.3 6.925,-5.875 11.325,-7.725c4.4,-1.85 9.3,-2.775 14.7,-2.775c9.7,0 17.425,2.95 23.175,8.85c5.75,5.9 8.625,14.15 8.625,24.75l0,8.85Zm-20.4,-13.65c0,-1.9 -0.225,-3.75 -0.675,-5.55c-0.45,-1.8 -1.175,-3.375 -2.175,-4.725c-1,-1.35 -2.25,-2.425 -3.75,-3.225c-1.5,-0.8 -3.35,-1.2 -5.55,-1.2c-4,0 -7.3,1.35 -9.9,4.05c-2.6,2.7 -4.15,6.35 -4.65,10.95l26.7,-0.3Z" style="fill:#fff;fill-rule:nonzero;"/><path d="M563.783,261.333l19.95,0l0,71.55l-14.85,0l-2.1,-8.1l-0.6,0c-1.1,1.1 -2.375,2.225 -3.825,3.375c-1.45,1.15 -3.15,2.2 -5.1,3.15c-1.95,0.95 -4.15,1.725 -6.6,2.325c-2.45,0.6 -5.175,0.9 -8.175,0.9c-7.7,0 -13.775,-2.15 -18.225,-6.45c-4.45,-4.3 -6.675,-10.65 -6.675,-19.05l0,-47.7l19.95,0l0,46.05c0,4.3 1.025,7.4 3.075,9.3c2.05,1.9 4.675,2.85 7.875,2.85c3.6,0 6.675,-0.75 9.225,-2.25c2.55,-1.5 4.575,-3.25 6.075,-5.25l0,-50.7Z" style="fill:#fff;fill-rule:nonzero;"/><path d="M594.233,332.883l0,-71.55l15.45,0l2.25,12.9c1.7,-3.8 4.4,-7.15 8.1,-10.05c3.7,-2.9 8.35,-4.35 13.95,-4.35c2.3,0 4.35,0.25 6.15,0.75c1.8,0.5 3.3,1.1 4.5,1.8l-3.3,15.75c-1.1,-0.6 -2.5,-1.125 -4.2,-1.575c-1.7,-0.45 -3.7,-0.675 -6,-0.675c-4.9,0 -8.975,1.625 -12.225,4.875c-3.25,3.25 -4.875,8.575 -4.875,15.975l0,36.15l-19.8,0Z" style="fill:#fff;fill-rule:nonzero;"/><path d="M711.083,296.583c0,5.9 -0.95,11.2 -2.85,15.9c-1.9,4.7 -4.525,8.675 -7.875,11.925c-3.35,3.25 -7.275,5.75 -11.775,7.5c-4.5,1.75 -9.35,2.625 -14.55,2.625c-5.2,0 -10.025,-0.8 -14.475,-2.4c-4.45,-1.6 -8.3,-3.95 -11.55,-7.05c-3.25,-3.1 -5.8,-6.925 -7.65,-11.475c-1.85,-4.55 -2.775,-9.725 -2.775,-15.525c0,-6.1 0.95,-11.525 2.85,-16.275c1.9,-4.75 4.525,-8.75 7.875,-12c3.35,-3.25 7.275,-5.725 11.775,-7.425c4.5,-1.7 9.35,-2.55 14.55,-2.55c5.2,0 10.025,0.8 14.475,2.4c4.45,1.6 8.3,3.925 11.55,6.975c3.25,3.05 5.8,6.875 7.65,11.475c1.85,4.6 2.775,9.9 2.775,15.9Zm-20.55,0.75c0,-4.1 -0.45,-7.6 -1.35,-10.5c-0.9,-2.9 -2.1,-5.25 -3.6,-7.05c-1.5,-1.8 -3.25,-3.125 -5.25,-3.975c-2,-0.85 -4.05,-1.275 -6.15,-1.275c-2.1,0 -4.1,0.375 -6,1.125c-1.9,0.75 -3.6,2 -5.1,3.75c-1.5,1.75 -2.7,4.075 -3.6,6.975c-0.9,2.9 -1.35,6.55 -1.35,10.95c0,3.9 0.45,7.275 1.35,10.125c0.9,2.85 2.125,5.175 3.675,6.975c1.55,1.8 3.3,3.15 5.25,4.05c1.95,0.9 3.975,1.35 6.075,1.35c2.1,0 4.1,-0.375 6,-1.125c1.9,-0.75 3.6,-2.025 5.1,-3.825c1.5,-1.8 2.7,-4.125 3.6,-6.975c0.9,-2.85 1.35,-6.375 1.35,-10.575Z" style="fill:#fff;fill-rule:nonzero;"/></g></g><defs><radialGradient id="_Radial2" cx="0" cy="0" r="1" gradientUnits="userSpaceOnUse" gradientTransform="matrix(-872.917,427.083,-427.083,-872.917,1066.67,0)"><stop offset="0" style="stop-color:#55b5f3;stop-opacity:1"/><stop offset="0.44" style="stop-color:#3c94ee;stop-opacity:1"/><stop offset="1" style="stop-color:#0348e3;stop-opacity:1"/></radialGradient></defs></svg>